<svg width="640" height="400" viewBox="0 0 640 400" fill="none" xmlns="http://www.w3.org/2000/svg">
  <rect width="640" height="400" rx="40" fill="url(#paint0_linear)" />
  <g filter="url(#filter0_f)">
    <circle cx="520" cy="128" r="120" fill="url(#paint1_radial)" fill-opacity="0.7" />
  </g>
  <g filter="url(#filter1_f)">
    <circle cx="132" cy="272" r="150" fill="url(#paint2_radial)" fill-opacity="0.75" />
  </g>
  <path d="M188 190C236 146 308 128 360 128C412 128 484 146 532 190" stroke="white" stroke-opacity="0.45" stroke-width="18" stroke-linecap="round"/>
  <path d="M228 232C260 204 312 190 360 190C408 190 460 204 492 232" stroke="white" stroke-opacity="0.35" stroke-width="16" stroke-linecap="round"/>
  <path d="M268 276C296 254 328 244 360 244C392 244 424 254 452 276" stroke="white" stroke-opacity="0.28" stroke-width="14" stroke-linecap="round"/>
  <circle cx="360" cy="200" r="46" fill="white" fill-opacity="0.5" />
  <circle cx="408" cy="152" r="12" fill="#FDE68A" fill-opacity="0.9" />
  <defs>
    <filter id="filter0_f" x="260" y="-132" width="520" height="520" filterUnits="userSpaceOnUse" color-interpolation-filters="sRGB">
      <feGaussianBlur stdDeviation="70" />
    </filter>
    <filter id="filter1_f" x="-118" y="22" width="500" height="500" filterUnits="userSpaceOnUse" color-interpolation-filters="sRGB">
      <feGaussianBlur stdDeviation="70" />
    </filter>
    <linearGradient id="paint0_linear" x1="84" y1="24" x2="556" y2="380" gradientUnits="userSpaceOnUse">
      <stop stop-color="#111827" stop-opacity="0.95" />
      <stop offset="1" stop-color="#1E1B4B" stop-opacity="0.95" />
    </linearGradient>
    <radialGradient id="paint1_radial" cx="0" cy="0" r="1" gradientUnits="userSpaceOnUse" gradientTransform="translate(520 128) rotate(90) scale(120)">
      <stop stop-color="#38BDF8" />
      <stop offset="1" stop-color="#38BDF8" stop-opacity="0" />
    </radialGradient>
    <radialGradient id="paint2_radial" cx="0" cy="0" r="1" gradientUnits="userSpaceOnUse" gradientTransform="translate(132 272) rotate(90) scale(150)">
      <stop stop-color="#C084FC" />
      <stop offset="1" stop-color="#C084FC" stop-opacity="0" />
    </radialGradient>
  </defs>
</svg>
