<svg width="720" height="880" viewBox="0 0 720 880" fill="none" xmlns="http://www.w3.org/2000/svg">
  <rect width="720" height="880" rx="80" fill="url(#paint0_linear)" />
  <g filter="url(#filter0_f)">
    <circle cx="580" cy="220" r="160" fill="url(#paint1_radial)" fill-opacity="0.65" />
  </g>
  <g filter="url(#filter1_f)">
    <circle cx="160" cy="660" r="180" fill="url(#paint2_radial)" fill-opacity="0.7" />
  </g>
  <path d="M360 208C284 208 220 272 220 348V464C220 556 304 624 360 624C416 624 500 556 500 464V348C500 272 436 208 360 208Z" fill="url(#paint3_linear)"/>
  <path d="M272 540C215 540 168 587 168 644C168 716 232 760 360 760C488 760 552 716 552 644C552 587 505 540 448 540" stroke="url(#paint4_linear)" stroke-width="18" stroke-linecap="round"/>
  <path d="M360 272C320 272 288 304 288 344C288 384 320 416 360 416C400 416 432 384 432 344C432 304 400 272 360 272Z" fill="white" fill-opacity="0.6"/>
  <path d="M292 492C292 492 316 520 360 520C404 520 428 492 428 492" stroke="white" stroke-opacity="0.45" stroke-width="16" stroke-linecap="round"/>
  <defs>
    <filter id="filter0_f" x="320" y="-40" width="520" height="520" filterUnits="userSpaceOnUse" color-interpolation-filters="sRGB">
      <feGaussianBlur stdDeviation="60" />
    </filter>
    <filter id="filter1_f" x="-80" y="420" width="480" height="480" filterUnits="userSpaceOnUse" color-interpolation-filters="sRGB">
      <feGaussianBlur stdDeviation="60" />
    </filter>
    <linearGradient id="paint0_linear" x1="84" y1="72" x2="636" y2="808" gradientUnits="userSpaceOnUse">
      <stop stop-color="#F8FBFF" />
      <stop offset="1" stop-color="#E0F2FF" />
    </linearGradient>
    <radialGradient id="paint1_radial" cx="0" cy="0" r="1" gradientUnits="userSpaceOnUse" gradientTransform="translate(580 220) rotate(90) scale(160)">
      <stop stop-color="#38BDF8" />
      <stop offset="1" stop-color="#38BDF8" stop-opacity="0" />
    </radialGradient>
    <radialGradient id="paint2_radial" cx="0" cy="0" r="1" gradientUnits="userSpaceOnUse" gradientTransform="translate(160 660) rotate(90) scale(180)">
      <stop stop-color="#818CF8" />
      <stop offset="1" stop-color="#818CF8" stop-opacity="0" />
    </radialGradient>
    <linearGradient id="paint3_linear" x1="220" y1="208" x2="516" y2="632" gradientUnits="userSpaceOnUse">
      <stop stop-color="#0F172A" stop-opacity="0.8" />
      <stop offset="1" stop-color="#38BDF8" stop-opacity="0.4" />
    </linearGradient>
    <linearGradient id="paint4_linear" x1="168" y1="540" x2="560" y2="756" gradientUnits="userSpaceOnUse">
      <stop stop-color="#0F172A" stop-opacity="0.65" />
      <stop offset="1" stop-color="#38BDF8" stop-opacity="0.3" />
    </linearGradient>
  </defs>
</svg>
